<svg width="152" height="152" viewBox="0 0 152 152" fill="none" xmlns="http://www.w3.org/2000/svg">
<path d="M91.0762 18.2587C78.8095 20.9253 62.8095 29.0587 42.5428 42.6587C23.3428 55.7253 14.5428 63.3253 10.6761 70.9253C2.67615 86.392 1.74281 108.659 8.54281 118.925C13.6095 126.659 18.9428 128.525 37.4761 129.325C49.2095 129.725 54.6762 129.325 60.4095 127.725C70.0095 124.925 97.8762 110.792 104.009 105.725C108.676 101.859 108.676 101.725 108.543 91.192C108.409 79.192 105.076 71.592 99.0762 70.1253C90.5428 67.992 65.2095 77.592 49.4761 88.9253C43.2095 93.4587 38.2761 97.992 37.8761 99.7253C36.9428 103.192 40.2761 110.259 43.3428 111.459C48.5428 113.459 58.1428 112.125 65.0762 108.659C73.0762 104.525 75.6095 101.325 72.6762 98.9253C70.6762 97.192 65.3428 98.2587 65.3428 100.392C65.3428 101.192 66.2762 101.192 67.8762 100.392C70.2762 99.0587 72.0095 99.592 72.0095 101.725C72.0095 103.325 60.4095 109.059 55.0762 110.259C52.6761 110.659 48.9428 110.792 46.9428 110.259C42.6761 109.325 38.5428 103.459 39.8761 99.8587C40.4095 98.5253 45.6095 93.992 51.6095 89.7253C65.2095 79.992 82.4095 73.192 93.8762 73.0587C101.476 72.9253 101.743 73.0587 104.143 77.592C107.076 83.0587 107.609 98.5253 105.076 101.859C100.943 106.925 81.8762 117.592 65.3428 123.992C57.8762 126.925 54.6762 127.459 41.3428 127.459C22.5428 127.459 15.8761 125.725 11.2095 119.592C6.27615 113.192 4.27615 100.259 6.40948 89.592C10.4095 70.792 16.6761 62.792 40.6761 46.2587C67.2095 27.992 87.8762 18.9253 102.943 18.9253C115.209 18.9253 120.143 22.792 133.476 42.5253C146.276 61.3253 149.609 77.992 144.009 94.392C139.876 106.392 136.276 110.659 120.143 122.925C112.009 129.059 105.343 134.792 105.343 135.459C105.343 135.992 106.143 135.992 107.076 135.325C107.876 134.659 113.743 130.259 120.009 125.592C136.676 113.192 139.609 110.125 143.876 99.7253C149.743 85.4587 150.276 76.6587 146.143 63.592C141.343 48.2587 124.676 24.1253 115.876 19.592C110.543 16.792 100.143 16.1253 91.0762 18.2587Z" fill="black" fill-opacity="0.36"/>
</svg>
