<svg width="404" height="70" viewBox="0 0 404 70" fill="none" xmlns="http://www.w3.org/2000/svg">
<path d="M386.269 67.1458C381.212 67.1458 377.144 65.6146 374.06 62.5417C370.988 59.4583 369.456 55.3646 369.456 50.25V18C369.456 12.8906 370.988 8.78125 374.06 5.66667C377.144 2.55729 381.212 1 386.269 1C391.378 1 395.488 2.55729 398.602 5.66667C401.712 8.78125 403.269 12.8906 403.269 18V50.25C403.269 55.3646 401.712 59.4583 398.602 62.5417C395.488 65.6146 391.378 67.1458 386.269 67.1458ZM386.269 59.4792C388.727 59.4792 390.691 58.6667 392.165 57.0417C393.649 55.4063 394.394 53.2656 394.394 50.625V17.5417C394.394 14.8906 393.649 12.75 392.165 11.125C390.691 9.48958 388.727 8.66667 386.269 8.66667C383.863 8.66667 381.941 9.48958 380.498 11.125C379.05 12.75 378.331 14.8906 378.331 17.5417V50.625C378.331 53.2656 379.05 55.4063 380.498 57.0417C381.941 58.6667 383.863 59.4792 386.269 59.4792Z" fill="black"/>
<path d="M2.91667 66.4167C2.30208 66.4167 2 66.1146 2 65.5V2.66667C2 2.05729 2.30208 1.75 2.91667 1.75H9.9375C10.5625 1.75 10.875 2.05729 10.875 2.66667V58.375C10.875 58.625 10.9896 58.75 11.2292 58.75H31.9375C32.5469 58.75 32.8542 59.0573 32.8542 59.6667V65.5C32.8542 66.1146 32.5469 66.4167 31.9375 66.4167H2.91667Z" fill="black"/>
<path d="M40.521 66.4167C39.9065 66.4167 39.6044 66.1146 39.6044 65.5V2.66667C39.6044 2.05729 39.9065 1.75 40.521 1.75H47.5419C48.1669 1.75 48.4794 2.05729 48.4794 2.66667V65.5C48.4794 66.1146 48.1669 66.4167 47.5419 66.4167H40.521Z" fill="black"/>
<path d="M85.9935 2.66667C85.9935 2.05729 86.2956 1.75 86.9102 1.75H93.8477C94.4571 1.75 94.7644 2.05729 94.7644 2.66667V65.5C94.7644 66.1146 94.4571 66.4167 93.8477 66.4167H85.8894C85.3998 66.4167 85.0612 66.1771 84.8685 65.6875L69.1602 23.4583C69.1029 23.3333 69.0144 23.2865 68.8894 23.3125C68.7644 23.3438 68.7019 23.4167 68.7019 23.5417L68.806 65.5C68.806 66.1146 68.4935 66.4167 67.8685 66.4167H60.8477C60.2331 66.4167 59.931 66.1146 59.931 65.5V2.66667C59.931 2.05729 60.2331 1.75 60.8477 1.75H68.7019C69.2019 1.75 69.5404 1.99479 69.7227 2.47917L85.5144 44.7083C85.5821 44.8906 85.681 44.9688 85.806 44.9375C85.931 44.9115 85.9935 44.8021 85.9935 44.6042V2.66667Z" fill="black"/>
<path d="M137.179 8.47917C137.179 9.10417 136.866 9.41667 136.241 9.41667H115.45C115.21 9.41667 115.095 9.53646 115.095 9.77083V29.8333C115.095 30.0729 115.21 30.1875 115.45 30.1875H128.2C128.825 30.1875 129.137 30.5 129.137 31.125V36.9375C129.137 37.5625 128.825 37.875 128.2 37.875H115.45C115.21 37.875 115.095 37.9948 115.095 38.2292V58.375C115.095 58.625 115.21 58.75 115.45 58.75H136.241C136.866 58.75 137.179 59.0573 137.179 59.6667V65.5C137.179 66.1146 136.866 66.4167 136.241 66.4167H107.137C106.523 66.4167 106.22 66.1146 106.22 65.5V2.66667C106.22 2.05729 106.523 1.75 107.137 1.75H136.241C136.866 1.75 137.179 2.05729 137.179 2.66667V8.47917Z" fill="black"/>
<path d="M197.137 67.1458C192.273 67.1458 188.351 65.625 185.367 62.5833C182.377 59.5313 180.887 55.5417 180.887 50.625V48.2083C180.887 47.599 181.19 47.2917 181.804 47.2917H188.637C189.247 47.2917 189.554 47.599 189.554 48.2083V50.1458C189.554 52.9792 190.262 55.2448 191.679 56.9375C193.096 58.6354 194.913 59.4792 197.137 59.4792C199.356 59.4792 201.19 58.6667 202.637 57.0417C204.08 55.4063 204.804 53.2656 204.804 50.625C204.804 48.8333 204.413 47.2656 203.637 45.9167C202.872 44.5573 201.856 43.3438 200.596 42.2708C199.33 41.1875 197.283 39.599 194.45 37.5C191.309 35.1562 188.846 33.1562 187.054 31.5C185.273 29.8333 183.768 27.8333 182.533 25.5C181.309 23.1563 180.7 20.4115 180.7 17.2708C180.7 12.2708 182.169 8.3125 185.117 5.39583C188.075 2.46875 191.929 1 196.679 1C201.606 1 205.565 2.57292 208.554 5.70833C211.538 8.84896 213.033 12.974 213.033 18.0833V20.3958C213.033 21.0208 212.726 21.3333 212.117 21.3333H205.262C204.648 21.3333 204.346 21.0208 204.346 20.3958V17.9167C204.346 15.1406 203.637 12.9063 202.221 11.2083C200.804 9.51563 198.955 8.66667 196.679 8.66667C194.523 8.66667 192.768 9.42708 191.408 10.9375C190.059 12.4375 189.387 14.5521 189.387 17.2708C189.387 19.7292 190.059 21.8073 191.408 23.5C192.768 25.1979 195.387 27.4583 199.262 30.2917C202.955 33.0573 205.742 35.3073 207.617 37.0417C209.502 38.7656 210.955 40.6615 211.971 42.7292C212.981 44.7865 213.492 47.2292 213.492 50.0625C213.492 55.2448 211.976 59.3906 208.95 62.5C205.934 65.599 201.997 67.1458 197.137 67.1458Z" fill="black"/>
<path d="M253.601 1.75C254.211 1.75 254.518 2.05729 254.518 2.66667V8.47917C254.518 9.10417 254.211 9.41667 253.601 9.41667H241.497C241.247 9.41667 241.122 9.53646 241.122 9.77083V65.5C241.122 66.1146 240.81 66.4167 240.185 66.4167H233.164C232.549 66.4167 232.247 66.1146 232.247 65.5V9.77083C232.247 9.53646 232.122 9.41667 231.872 9.41667H220.414C219.799 9.41667 219.497 9.10417 219.497 8.47917V2.66667C219.497 2.05729 219.799 1.75 220.414 1.75H253.601Z" fill="black"/>
<path d="M279.287 67.1458C274.23 67.1458 270.173 65.474 267.121 62.125C264.079 58.7656 262.558 54.3438 262.558 48.8542V2.66667C262.558 2.05729 262.86 1.75 263.475 1.75H270.496C271.121 1.75 271.433 2.05729 271.433 2.66667V49.7917C271.433 52.6823 272.152 55.0208 273.6 56.8125C275.042 58.5938 276.938 59.4792 279.287 59.4792C281.673 59.4792 283.589 58.5938 285.037 56.8125C286.496 55.0208 287.225 52.6823 287.225 49.7917V2.66667C287.225 2.05729 287.527 1.75 288.141 1.75H295.162C295.787 1.75 296.1 2.05729 296.1 2.66667V48.8542C296.1 54.3438 294.558 58.7656 291.475 62.125C288.391 65.474 284.329 67.1458 279.287 67.1458Z" fill="black"/>
<path d="M308.005 66.4167C307.391 66.4167 307.089 66.1146 307.089 65.5V2.66667C307.089 2.05729 307.391 1.75 308.005 1.75H323.172C328.281 1.75 332.344 3.32292 335.359 6.45833C338.37 9.59896 339.88 13.849 339.88 19.2083V48.9583C339.88 54.3229 338.37 58.5729 335.359 61.7083C332.344 64.849 328.281 66.4167 323.172 66.4167H308.005ZM315.964 58.375C315.964 58.625 316.078 58.75 316.318 58.75L323.068 58.6458C325.412 58.6458 327.297 57.7448 328.714 55.9375C330.13 54.1198 330.865 51.6406 330.922 48.5V19.6667C330.922 16.5313 330.214 14.0365 328.797 12.1875C327.38 10.3438 325.469 9.41667 323.068 9.41667H316.318C316.078 9.41667 315.964 9.53646 315.964 9.77083V58.375Z" fill="black"/>
<path d="M351.338 66.4167C350.723 66.4167 350.421 66.1146 350.421 65.5V2.66667C350.421 2.05729 350.723 1.75 351.338 1.75H358.359C358.984 1.75 359.296 2.05729 359.296 2.66667V65.5C359.296 66.1146 358.984 66.4167 358.359 66.4167H351.338Z" fill="black"/>
</svg>
